<?xml version="1.0" encoding="utf-8"?>
<!-- Generator: Adobe Illustrator 27.1.1, SVG Export Plug-In . SVG Version: 6.00 Build 0)  -->
<svg version="1.1" id="Layer_1" xmlns="http://www.w3.org/2000/svg" xmlns:xlink="http://www.w3.org/1999/xlink" x="0px" y="0px"
	 viewBox="0 0 100 100" style="enable-background:new 0 0 100 100;" xml:space="preserve">
<style type="text/css">
	.st0{fill:none;stroke:#000000;stroke-miterlimit:10;}
	.st1{fill:none;stroke:#000000;stroke-width:0.5;stroke-miterlimit:10;}
	.st2{fill:#4552A4;stroke:#000000;stroke-width:0.25;stroke-miterlimit:10;}
	.st3{fill:#FDEB01;stroke:#000000;stroke-width:0.25;stroke-miterlimit:10;}
</style>
<path class="st0" d="M86.54,53.71"/>
<g>
	<path class="st1" d="M97.81,50.03c0,26.59-21.4,48.15-47.81,48.15S2.19,76.63,2.19,50.03c0-12.66,4.85-24.19,12.79-32.78
		C23.71,7.79,36.17,1.88,50,1.88c14.51,0,27.51,6.51,36.27,16.78C93.46,27.09,97.81,38.05,97.81,50.03z"/>
	<polygon class="st1" points="50,50.03 97.81,50.03 2.19,50.03 	"/>
	<ellipse class="st1" cx="50" cy="50.03" rx="21.43" ry="48.15"/>
	<path class="st1" d="M88.9,22.04"/>
	<path class="st1" d="M10.81,22.45"/>
	<path class="st1" d="M58.2,57.47"/>
	<path class="st1" d="M13.93,17.89c7.82,3.4,19.03,12.95,37.49,12.57c16.84-0.35,26.17-9.18,33.74-12.57"/>
	<path class="st1" d="M85.16,82.71c-7.82-3.4-19.03-12.41-37.49-12.03c-16.84,0.35-25.21,8.64-32.78,12.03"/>
</g>
<g>
	<path class="st2" d="M11.55,57.74l-1.06-5.79c-0.25-1.36-0.64-3.27-1.16-5.73l-5.1-23.5l-1.84-7.93c2.63,0.04,4.75,0.06,6.38,0.06
		c1.83,0,3.96-0.02,6.38-0.06c0.56,3.42,1.01,5.93,1.34,7.52l2.63,12.68c0.54,2.73,1.15,6.05,1.81,9.97l1.03-4.41l3.71-14.54
		l2.56-11.23c2.85,0.04,5.27,0.06,7.25,0.06c2.15,0,4.55-0.02,7.22-0.06l1.97,13.25l2.73,16.87l1.22-4.63
		c0.23-0.8,0.47-1.6,0.72-2.42c0.25-0.82,0.77-2.44,1.56-4.88l3.81-12.08l1.78-6.1c2.52,0.02,4.6,0.03,6.24,0.03
		c1.85,0,3.92-0.01,6.21-0.03L56.82,51.35l-1.93,6.39c-3.13-0.04-5.85-0.06-8.19-0.06c-2.46,0-5.18,0.02-8.15,0.06l-0.72-4.31
		l-2.74-15.01c-0.15-0.9-0.28-1.83-0.39-2.78s-0.27-2.44-0.48-4.45l-1.09,4.88c-0.27,1.09-0.55,2.19-0.84,3.3l-5.03,18.38
		c-3.15-0.04-5.76-0.06-7.84-0.06C17.18,57.68,14.57,57.7,11.55,57.74z"/>
</g>
<g>
	<path class="st3" d="M47.16,85.7c2.44-3.1,5.4-7.01,8.89-11.71c3.49-4.7,6.19-8.43,8.11-11.2l-3.69-6.26
		c-0.69-1.13-1.68-2.72-2.97-4.75l-3.12-4.88c-0.77-1.22-1.63-2.6-2.59-4.15c2.69,0.04,5.44,0.06,8.25,0.06
		c2.23,0,4.61-0.02,7.15-0.06c0.92,1.83,2,3.8,3.23,5.93c1.24,2.13,2.22,3.98,2.95,5.55c0.83-1.45,1.97-3.25,3.41-5.4
		c1.44-2.15,2.7-4.18,3.78-6.09c2.21,0.04,4.61,0.06,7.22,0.06c1.69,0,4.08-0.02,7.19-0.06c-1.5,2.16-3.73,5.22-6.69,9.19
		c-2.96,3.96-5.76,7.88-8.4,11.74c3.37,5.79,7.96,13.13,13.75,22.03c-3.29-0.04-5.76-0.06-7.4-0.06c-2.75,0-5.47,0.02-8.15,0.06
		c-0.81-1.68-1.95-3.8-3.42-6.37c-1.47-2.57-2.75-4.94-3.83-7.1c-0.81,1.47-2.15,3.53-4,6.2c-1.85,2.66-3.49,5.09-4.9,7.27
		c-3.04-0.04-5.45-0.06-7.22-0.06C52.73,85.64,50.22,85.66,47.16,85.7z"/>
</g>
</svg>
